<svg width="142px" height="142px" viewBox="0 0 142 142" version="1.1" xmlns="http://www.w3.org/2000/svg" xmlns:xlink="http://www.w3.org/1999/xlink">
    <g id="Page-1" stroke="none" stroke-width="1" fill="none" fill-rule="evenodd">
        <g id="Nulab-logos-" transform="translate(-1348.000000, -2619.000000)">
            <g id="Group-7" transform="translate(1348.000000, 2619.000000)">
                <path d="M112.518975,141.27641 L29.5477542,141.27641 C13.8226507,141.27641 0.955380933,128.389559 0.955380933,112.638806 L0.955380933,29.5308457 C0.955380933,13.7800933 13.8226507,0.893241768 29.5477542,0.893241768 L112.518975,0.893241768 C128.244079,0.893241768 141.109945,13.7800933 141.109945,29.5308457 L141.109945,112.638806 C141.109945,128.389559 128.244079,141.27641 112.518975,141.27641" id="Fill-16" fill="#42CE9F"></path>
                <path d="M60.1988625,61.3236616 C60.1441201,72.9746913 60.1146434,84.3121962 60.1441201,91.0958596 C70.2756738,90.5461368 75.2937266,88.482216 79.2632519,83.7132655 C82.0775724,80.3319784 82.686757,76.4586121 80.9799172,72.8073843 C78.7467083,68.0328101 72.1804284,62.9897012 60.1988625,61.3236616 M53.5357306,104.795345 L53.5357306,104.795345 C51.7348462,104.795345 50.0069517,104.075503 48.7380511,102.796097 L48.7352438,102.793285 C46.7434629,100.784196 46.7153899,98.8622754 46.6648584,95.3741368 C46.6395927,93.6504536 46.6241525,91.2083348 46.6171343,88.2896022 C46.6059051,83.1719784 46.6185379,76.0705725 46.6536292,67.1808101 C46.7153899,51.8855824 46.8262783,36.6381566 46.8262783,36.6381566 L60.3448422,36.7365725 C60.3195765,40.1150477 60.2957144,43.8295428 60.2718523,47.705721 C76.2678604,49.5531269 88.283114,56.4998794 93.2225623,67.065523 C97.1640146,75.4941368 95.8263351,84.9589289 89.6474629,92.3837012 C80.1166718,103.836493 66.5812641,104.795345 53.5357306,104.795345" id="Fill-18" fill="#FFFFFF"></path>
            </g>
        </g>
    </g>
</svg>